<svg width="400" height="400" viewBox="0 0 400 400" fill="none" xmlns="http://www.w3.org/2000/svg">
<circle cx="200" cy="200" r="200" fill="#F8D948"/>
<path d="M153.732 96.6666H95.124C93.8057 96.6666 92.9406 98.0444 93.5133 99.2318L200.614 321.269C201.269 322.628 203.209 322.615 203.846 321.247L231.853 261.052C232.077 260.571 232.075 260.014 231.848 259.533L155.349 97.6907C155.053 97.0654 154.424 96.6666 153.732 96.6666Z" fill="black"/>
<path d="M240.42 236.787L212.008 177.455C211.776 176.972 211.774 176.409 212.002 175.923L248.712 97.6952C249.007 97.0675 249.638 96.6666 250.331 96.6666H307.17C308.483 96.6666 309.348 98.0338 308.787 99.2202L243.649 236.78C243.005 238.141 241.07 238.145 240.42 236.787Z" fill="black"/>
</svg>
